<svg width="20" height="33" viewBox="0 0 20 33" fill="none" xmlns="http://www.w3.org/2000/svg">
<path d="M18.75 20.1797H12.9609V1.25C12.9609 0.90625 12.6797 0.625 12.3359 0.625H7.64842C7.30467 0.625 7.02342 0.90625 7.02342 1.25V20.1797H1.24998C0.726544 20.1797 0.437482 20.7813 0.757795 21.1875L9.5078 32.2578C9.56626 32.3325 9.64096 32.3929 9.72623 32.4345C9.81151 32.476 9.90512 32.4976 9.99998 32.4976C10.0948 32.4976 10.1885 32.476 10.2737 32.4345C10.359 32.3929 10.4337 32.3325 10.4922 32.2578L19.2422 21.1875C19.5625 20.7813 19.2734 20.1797 18.75 20.1797Z" fill="#ED4C5C"/>
</svg>
